# xmcd CD database file
#
# Track frame offsets:
#	150
#	13837
#	36720
#	57855
#	97540
#	117204
#	142197
#	172887
#	189645
#	213900
#
# Disc length: 3100 seconds
#
# Revision: 0
# Processed by: cddbd v1.5.2PL0 Copyright (c) Steve Scherf et al.
# Submitted via: CDex 1.70beta2
#
DISCID=880c1a0a
DTITLE=TOCANDO CIELO - Nuevo t￭tulo (21)
DYEAR=1900
DGENRE=New Age
TTITLE0=Pista 01
TTITLE1=Pista 02
TTITLE2=Pista 03
TTITLE3=Pista 04
TTITLE4=Pista 05
TTITLE5=Pista 06
TTITLE6=Pista 07
TTITLE7=Pista 08
TTITLE8=Pista 09
TTITLE9=Pista 10
EXTD=
EXTT0=
EXTT1=
EXTT2=
EXTT3=
EXTT4=
EXTT5=
EXTT6=
EXTT7=
EXTT8=
EXTT9=
PLAYORDER=
